<?xml version="1.0" standalone="no"?>
<!DOCTYPE svg PUBLIC "-//W3C//DTD SVG 20010904//EN"
 "http://www.w3.org/TR/2001/REC-SVG-20010904/DTD/svg10.dtd">
<svg version="1.0" xmlns="http://www.w3.org/2000/svg"
 width="260.000000pt" height="260.000000pt" viewBox="0 0 260.000000 260.000000"
 preserveAspectRatio="xMidYMid meet">
<metadata>
Created by potrace 1.14, written by Peter Selinger 2001-2017
</metadata>
<g transform="translate(0.000000,260.000000) scale(0.100000,-0.100000)"
fill="#000000" stroke="none">
<path d="M515 2575 c-24 -23 -29 -47 -25 -107 1 -17 -4 -28 -12 -29 -7 0 -58
-1 -113 -3 -122 -2 -187 -23 -249 -77 -87 -77 -113 -144 -115 -299 l-2 -110
1302 0 1301 0 -4 123 c-3 109 -7 130 -31 178 -32 66 -93 126 -162 158 -41 20
-69 24 -160 27 -60 2 -115 3 -122 3 -7 1 -11 21 -11 52 -1 28 -8 61 -16 74
-31 47 -117 40 -136 -10 -6 -15 -10 -47 -10 -73 l0 -47 -642 2 c-354 1 -646 2
-650 2 -5 1 -8 21 -8 46 0 77 -30 114 -93 115 -10 0 -29 -11 -42 -25z"/>
<path d="M2 1017 l3 -772 27 -57 c32 -68 84 -120 158 -156 l55 -27 1055 0
1055 0 55 26 c70 33 126 89 159 159 l26 55 3 772 2 771 -1300 1 -1301 0 3
-772z m1218 342 c14 -8 39 -24 56 -36 31 -22 32 -22 48 -4 10 11 41 29 69 41
42 19 63 22 118 17 117 -10 201 -66 247 -165 77 -168 -12 -378 -249 -587 -45
-40 -200 -155 -208 -155 -4 0 -36 21 -71 47 -196 141 -338 301 -390 438 -62
168 -5 325 144 396 52 25 69 28 135 25 42 -2 87 -10 101 -17z"/>
</g>
</svg>
